<svg width="128" height="128" viewBox="0 0 128 128" fill="none" xmlns="http://www.w3.org/2000/svg">
<path d="M38.272 54.788C35.08 54.788 32.524 54.188 30.604 52.988C28.684 51.764 27.724 49.904 27.724 47.408C27.724 46.088 27.952 45.08 28.408 44.384C28.864 43.688 29.536 43.34 30.424 43.34C31.072 43.34 31.6 43.508 32.008 43.844C32.416 44.18 32.62 44.612 32.62 45.14C32.62 45.62 32.584 46.04 32.512 46.4C32.512 46.496 32.488 46.664 32.44 46.904C32.416 47.144 32.404 47.396 32.404 47.66C32.404 48.74 32.944 49.544 34.024 50.072C35.128 50.6 36.664 50.864 38.632 50.864C40.672 50.864 42.268 50.504 43.42 49.784C44.572 49.04 45.148 48.008 45.148 46.688C45.148 45.872 44.884 45.176 44.356 44.6C43.828 44 43.168 43.508 42.376 43.124C41.584 42.716 40.468 42.224 39.028 41.648C37.18 40.928 35.668 40.244 34.492 39.596C33.34 38.948 32.344 38.072 31.504 36.968C30.688 35.84 30.28 34.448 30.28 32.792C30.28 31.064 30.736 29.528 31.648 28.184C32.584 26.84 33.916 25.796 35.644 25.052C37.396 24.308 39.448 23.936 41.8 23.936C43.552 23.936 45.16 24.2 46.624 24.728C48.088 25.232 49.252 26.012 50.116 27.068C51.004 28.124 51.448 29.42 51.448 30.956C51.448 32.468 51.22 33.608 50.764 34.376C50.308 35.144 49.636 35.528 48.748 35.528C48.124 35.528 47.596 35.336 47.164 34.952C46.756 34.568 46.552 34.112 46.552 33.584C46.552 33.128 46.588 32.708 46.66 32.324C46.732 31.604 46.768 31.148 46.768 30.956C46.768 29.948 46.276 29.18 45.292 28.652C44.308 28.124 43.084 27.86 41.62 27.86C39.556 27.86 37.972 28.244 36.868 29.012C35.788 29.756 35.248 30.812 35.248 32.18C35.248 33.092 35.524 33.872 36.076 34.52C36.652 35.168 37.36 35.708 38.2 36.14C39.04 36.572 40.216 37.088 41.728 37.688C43.552 38.432 45.016 39.104 46.12 39.704C47.224 40.304 48.16 41.12 48.928 42.152C49.72 43.184 50.116 44.456 50.116 45.968C50.116 48.8 49.036 50.984 46.876 52.52C44.74 54.032 41.872 54.788 38.272 54.788Z" fill="#B2667F"/>
<rect x="16" y="66" width="46" height="46" rx="4" fill="#EE779D"/>
<rect x="66" y="16" width="46" height="46" rx="4" fill="#8585E0"/>
<path d="M88.272 104.788C85.08 104.788 82.524 104.188 80.604 102.988C78.684 101.764 77.724 99.904 77.724 97.408C77.724 96.088 77.952 95.08 78.408 94.384C78.864 93.688 79.536 93.34 80.424 93.34C81.072 93.34 81.6 93.508 82.008 93.844C82.416 94.18 82.62 94.612 82.62 95.14C82.62 95.62 82.584 96.04 82.512 96.4C82.512 96.496 82.488 96.664 82.44 96.904C82.416 97.144 82.404 97.396 82.404 97.66C82.404 98.74 82.944 99.544 84.024 100.072C85.128 100.6 86.664 100.864 88.632 100.864C90.672 100.864 92.268 100.504 93.42 99.784C94.572 99.04 95.148 98.008 95.148 96.688C95.148 95.872 94.884 95.176 94.356 94.6C93.828 94 93.168 93.508 92.376 93.124C91.584 92.716 90.468 92.224 89.028 91.648C87.18 90.928 85.668 90.244 84.492 89.596C83.34 88.948 82.344 88.072 81.504 86.968C80.688 85.84 80.28 84.448 80.28 82.792C80.28 81.064 80.736 79.528 81.648 78.184C82.584 76.84 83.916 75.796 85.644 75.052C87.396 74.308 89.448 73.936 91.8 73.936C93.552 73.936 95.16 74.2 96.624 74.728C98.088 75.232 99.252 76.012 100.116 77.068C101.004 78.124 101.448 79.42 101.448 80.956C101.448 82.468 101.22 83.608 100.764 84.376C100.308 85.144 99.636 85.528 98.748 85.528C98.124 85.528 97.596 85.336 97.164 84.952C96.756 84.568 96.552 84.112 96.552 83.584C96.552 83.128 96.588 82.708 96.66 82.324C96.732 81.604 96.768 81.148 96.768 80.956C96.768 79.948 96.276 79.18 95.292 78.652C94.308 78.124 93.084 77.86 91.62 77.86C89.556 77.86 87.972 78.244 86.868 79.012C85.788 79.756 85.248 80.812 85.248 82.18C85.248 83.092 85.524 83.872 86.076 84.52C86.652 85.168 87.36 85.708 88.2 86.14C89.04 86.572 90.216 87.088 91.728 87.688C93.552 88.432 95.016 89.104 96.12 89.704C97.224 90.304 98.16 91.12 98.928 92.152C99.72 93.184 100.116 94.456 100.116 95.968C100.116 98.8 99.036 100.984 96.876 102.52C94.74 104.032 91.872 104.788 88.272 104.788Z" fill="#7B7BA3"/>
</svg>
